<?xml version="1.0" encoding="UTF-8"?>
<svg id="Laag_1" data-name="Laag 1" xmlns="http://www.w3.org/2000/svg" viewBox="0 0 246.86 240">
  <defs>
    <style>
      .cls-1 {
        fill: #40bfb9;
        fill-rule: evenodd;
      }
    </style>
  </defs>
  <path class="cls-1" d="M21.04,117.43c63.52-8.57,95.51,33.85,100.93,71.88,5.89,41.8-10.42,60.71-49.26,43.24C29.87,213.22,0,170.12,0,120.04,0,67.21,33.23,22.05,79.96,4.51c32.55-12.26,43.51,1.03,25.76,33.03-14.8,26.65-48.65,60.02-84.76,79.96l.07-.07Z"/>
  <path class="cls-1" d="M225.83,122.57c-63.52,8.56-95.51-33.85-100.93-71.88-5.89-41.8,10.42-60.71,49.27-43.23,42.82,19.32,72.7,62.42,72.7,112.51,0,52.9-33.23,97.98-79.96,115.52-32.55,12.27-43.51-1.03-25.76-33.03,14.8-26.65,48.65-60.02,84.76-79.96l-.07.07Z"/>
</svg>